{
	"asset":{
		"generator":"Khronos glTF Blender I/O v3.5.30",
		"version":"2.0"
	},
	"scene":0,
	"scenes":[
		{
			"name":"Scene",
			"nodes":[
				0,
				1,
				2,
				3,
				4,
				5,
				6,
				7
			]
		}
	],
	"nodes":[
		{
			"mesh":0,
			"name":"Cube",
			"translation":[
				0,
				1,
				0
			]
		},
		{
			"mesh":1,
			"name":"Cylinder",
			"translation":[
				5,
				1.4999662637710571,
				3.5
			]
		},
		{
			"mesh":2,
			"name":"Cube.001",
			"translation":[
				0,
				1,
				0
			]
		},
		{
			"mesh":3,
			"name":"Cube.002",
			"translation":[
				0,
				1,
				0
			]
		},
		{
			"mesh":4,
			"name":"Cube.003",
			"translation":[
				0,
				1,
				0
			]
		},
		{
			"mesh":5,
			"name":"Cube.004",
			"translation":[
				0,
				1,
				0
			]
		},
		{
			"mesh":6,
			"name":"Cylinder.001",
			"translation":[
				5,
				1.4999662637710571,
				-3.5
			]
		},
		{
			"mesh":7,
			"name":"Cube.005",
			"scale":[
				0.3999999761581421,
				0.3999999761581421,
				0.3999999761581421
			],
			"translation":[
				6.400000095367432,
				6.900000095367432,
				0
			]
		}
	],
	"materials":[
		{
			"doubleSided":true,
			"name":"Material.001",
			"pbrMetallicRoughness":{
				"metallicFactor":0,
				"roughnessFactor":0.5
			}
		},
		{
			"doubleSided":true,
			"name":"Material.005",
			"pbrMetallicRoughness":{
				"baseColorFactor":[
					0.7542386054992676,
					0.8000000715255737,
					0.6058534979820251,
					1
				],
				"metallicFactor":0,
				"roughnessFactor":0.5
			}
		},
		{
			"doubleSided":true,
			"name":"Material",
			"pbrMetallicRoughness":{
				"baseColorFactor":[
					0.5712540149688721,
					0.6132768988609314,
					0.4529857337474823,
					1
				],
				"metallicFactor":0,
				"roughnessFactor":0.5
			}
		},
		{
			"doubleSided":true,
			"name":"Material.002",
			"pbrMetallicRoughness":{
				"baseColorFactor":[
					0.8000000715255737,
					0.7994955778121948,
					0.42725926637649536,
					1
				],
				"metallicFactor":0,
				"roughnessFactor":0.5
			}
		},
		{
			"doubleSided":true,
			"name":"Material.003",
			"pbrMetallicRoughness":{
				"baseColorFactor":[
					0.055433738976716995,
					0.02582426369190216,
					0.008667606860399246,
					1
				],
				"metallicFactor":0,
				"roughnessFactor":0.5
			}
		},
		{
			"doubleSided":true,
			"name":"Material.004",
			"pbrMetallicRoughness":{
				"baseColorFactor":[
					0.7779039144515991,
					1,
					0.7848058938980103,
					1
				],
				"metallicFactor":0,
				"roughnessFactor":0.5
			}
		},
		{
			"doubleSided":true,
			"name":"Material.006",
			"pbrMetallicRoughness":{
				"baseColorFactor":[
					0.7800641655921936,
					0.8000000715255737,
					0.21896444261074066,
					1
				],
				"metallicFactor":0,
				"roughnessFactor":0.5
			}
		}
	],
	"meshes":[
		{
			"name":"Cube",
			"primitives":[
				{
					"attributes":{
						"POSITION":0,
						"TEXCOORD_0":1,
						"NORMAL":2
					},
					"indices":3,
					"material":0
				}
			]
		},
		{
			"name":"Cylinder",
			"primitives":[
				{
					"attributes":{
						"POSITION":4,
						"TEXCOORD_0":5,
						"NORMAL":6
					},
					"indices":7,
					"material":1
				}
			]
		},
		{
			"name":"Cube.001",
			"primitives":[
				{
					"attributes":{
						"POSITION":8,
						"TEXCOORD_0":9,
						"NORMAL":10
					},
					"indices":11,
					"material":2
				}
			]
		},
		{
			"name":"Cube.002",
			"primitives":[
				{
					"attributes":{
						"POSITION":12,
						"TEXCOORD_0":13,
						"NORMAL":14
					},
					"indices":15,
					"material":3
				}
			]
		},
		{
			"name":"Cube.003",
			"primitives":[
				{
					"attributes":{
						"POSITION":16,
						"TEXCOORD_0":17,
						"NORMAL":18
					},
					"indices":19,
					"material":4
				}
			]
		},
		{
			"name":"Cube.004",
			"primitives":[
				{
					"attributes":{
						"POSITION":20,
						"TEXCOORD_0":21,
						"NORMAL":22
					},
					"indices":23,
					"material":5
				}
			]
		},
		{
			"name":"Cylinder.001",
			"primitives":[
				{
					"attributes":{
						"POSITION":24,
						"TEXCOORD_0":25,
						"NORMAL":26
					},
					"indices":7,
					"material":1
				}
			]
		},
		{
			"name":"Cube.005",
			"primitives":[
				{
					"attributes":{
						"POSITION":27,
						"TEXCOORD_0":28,
						"NORMAL":29
					},
					"indices":30,
					"material":6
				}
			]
		}
	],
	"accessors":[
		{
			"bufferView":0,
			"componentType":5126,
			"count":154,
			"max":[
				6.199999809265137,
				7,
				5
			],
			"min":[
				-4,
				-1,
				-5
			],
			"type":"VEC3"
		},
		{
			"bufferView":1,
			"componentType":5126,
			"count":154,
			"type":"VEC2"
		},
		{
			"bufferView":2,
			"componentType":5126,
			"count":154,
			"type":"VEC3"
		},
		{
			"bufferView":3,
			"componentType":5123,
			"count":336,
			"type":"SCALAR"
		},
		{
			"bufferView":4,
			"componentType":5126,
			"count":192,
			"max":[
				0.4320000112056732,
				3.5,
				0.4000000059604645
			],
			"min":[
				-0.4320000112056732,
				-1,
				-0.4000000059604645
			],
			"type":"VEC3"
		},
		{
			"bufferView":5,
			"componentType":5126,
			"count":192,
			"type":"VEC2"
		},
		{
			"bufferView":6,
			"componentType":5126,
			"count":192,
			"type":"VEC3"
		},
		{
			"bufferView":7,
			"componentType":5123,
			"count":372,
			"type":"SCALAR"
		},
		{
			"bufferView":8,
			"componentType":5126,
			"count":8,
			"max":[
				5,
				6.368166923522949,
				4
			],
			"min":[
				-3,
				5,
				-4
			],
			"type":"VEC3"
		},
		{
			"bufferView":9,
			"componentType":5126,
			"count":8,
			"type":"VEC2"
		},
		{
			"bufferView":10,
			"componentType":5126,
			"count":8,
			"type":"VEC3"
		},
		{
			"bufferView":11,
			"componentType":5123,
			"count":12,
			"type":"SCALAR"
		},
		{
			"bufferView":12,
			"componentType":5126,
			"count":38,
			"max":[
				6,
				-0.4883720874786377,
				4
			],
			"min":[
				3,
				-1,
				-4
			],
			"type":"VEC3"
		},
		{
			"bufferView":13,
			"componentType":5126,
			"count":38,
			"type":"VEC2"
		},
		{
			"bufferView":14,
			"componentType":5126,
			"count":38,
			"type":"VEC3"
		},
		{
			"bufferView":15,
			"componentType":5123,
			"count":72,
			"type":"SCALAR"
		},
		{
			"bufferView":16,
			"componentType":5126,
			"count":4,
			"max":[
				3,
				2.9865598678588867,
				1.498132348060608
			],
			"min":[
				3,
				-0.49336737394332886,
				-1.498132348060608
			],
			"type":"VEC3"
		},
		{
			"bufferView":17,
			"componentType":5126,
			"count":4,
			"type":"VEC2"
		},
		{
			"bufferView":18,
			"componentType":5126,
			"count":4,
			"type":"VEC3"
		},
		{
			"bufferView":19,
			"componentType":5123,
			"count":6,
			"type":"SCALAR"
		},
		{
			"bufferView":20,
			"componentType":5126,
			"count":8,
			"max":[
				3,
				3.1374475955963135,
				1.6490200757980347
			],
			"min":[
				3,
				-0.49336737394332886,
				-1.6490200757980347
			],
			"type":"VEC3"
		},
		{
			"bufferView":21,
			"componentType":5126,
			"count":8,
			"type":"VEC2"
		},
		{
			"bufferView":22,
			"componentType":5126,
			"count":8,
			"type":"VEC3"
		},
		{
			"bufferView":23,
			"componentType":5123,
			"count":18,
			"type":"SCALAR"
		},
		{
			"bufferView":24,
			"componentType":5126,
			"count":192,
			"max":[
				0.4320000112056732,
				3.5,
				0.4000000059604645
			],
			"min":[
				-0.4320000112056732,
				-1,
				-0.4000000059604645
			],
			"type":"VEC3"
		},
		{
			"bufferView":25,
			"componentType":5126,
			"count":192,
			"type":"VEC2"
		},
		{
			"bufferView":26,
			"componentType":5126,
			"count":192,
			"type":"VEC3"
		},
		{
			"bufferView":27,
			"componentType":5126,
			"count":208,
			"max":[
				-0.5000002384185791,
				2.6500039100646973,
				1.512914776802063
			],
			"min":[
				-1.0000003576278687,
				-1.3999979496002197,
				-1.0129146575927734
			],
			"type":"VEC3"
		},
		{
			"bufferView":28,
			"componentType":5126,
			"count":208,
			"type":"VEC2"
		},
		{
			"bufferView":29,
			"componentType":5126,
			"count":208,
			"type":"VEC3"
		},
		{
			"bufferView":30,
			"componentType":5123,
			"count":414,
			"type":"SCALAR"
		}
	],
	"bufferViews":[
		{
			"buffer":0,
			"byteLength":1848,
			"byteOffset":0,
			"target":34962
		},
		{
			"buffer":0,
			"byteLength":1232,
			"byteOffset":1848,
			"target":34962
		},
		{
			"buffer":0,
			"byteLength":1848,
			"byteOffset":3080,
			"target":34962
		},
		{
			"buffer":0,
			"byteLength":672,
			"byteOffset":4928,
			"target":34963
		},
		{
			"buffer":0,
			"byteLength":2304,
			"byteOffset":5600,
			"target":34962
		},
		{
			"buffer":0,
			"byteLength":1536,
			"byteOffset":7904,
			"target":34962
		},
		{
			"buffer":0,
			"byteLength":2304,
			"byteOffset":9440,
			"target":34962
		},
		{
			"buffer":0,
			"byteLength":744,
			"byteOffset":11744,
			"target":34963
		},
		{
			"buffer":0,
			"byteLength":96,
			"byteOffset":12488,
			"target":34962
		},
		{
			"buffer":0,
			"byteLength":64,
			"byteOffset":12584,
			"target":34962
		},
		{
			"buffer":0,
			"byteLength":96,
			"byteOffset":12648,
			"target":34962
		},
		{
			"buffer":0,
			"byteLength":24,
			"byteOffset":12744,
			"target":34963
		},
		{
			"buffer":0,
			"byteLength":456,
			"byteOffset":12768,
			"target":34962
		},
		{
			"buffer":0,
			"byteLength":304,
			"byteOffset":13224,
			"target":34962
		},
		{
			"buffer":0,
			"byteLength":456,
			"byteOffset":13528,
			"target":34962
		},
		{
			"buffer":0,
			"byteLength":144,
			"byteOffset":13984,
			"target":34963
		},
		{
			"buffer":0,
			"byteLength":48,
			"byteOffset":14128,
			"target":34962
		},
		{
			"buffer":0,
			"byteLength":32,
			"byteOffset":14176,
			"target":34962
		},
		{
			"buffer":0,
			"byteLength":48,
			"byteOffset":14208,
			"target":34962
		},
		{
			"buffer":0,
			"byteLength":12,
			"byteOffset":14256,
			"target":34963
		},
		{
			"buffer":0,
			"byteLength":96,
			"byteOffset":14268,
			"target":34962
		},
		{
			"buffer":0,
			"byteLength":64,
			"byteOffset":14364,
			"target":34962
		},
		{
			"buffer":0,
			"byteLength":96,
			"byteOffset":14428,
			"target":34962
		},
		{
			"buffer":0,
			"byteLength":36,
			"byteOffset":14524,
			"target":34963
		},
		{
			"buffer":0,
			"byteLength":2304,
			"byteOffset":14560,
			"target":34962
		},
		{
			"buffer":0,
			"byteLength":1536,
			"byteOffset":16864,
			"target":34962
		},
		{
			"buffer":0,
			"byteLength":2304,
			"byteOffset":18400,
			"target":34962
		},
		{
			"buffer":0,
			"byteLength":2496,
			"byteOffset":20704,
			"target":34962
		},
		{
			"buffer":0,
			"byteLength":1664,
			"byteOffset":23200,
			"target":34962
		},
		{
			"buffer":0,
			"byteLength":2496,
			"byteOffset":24864,
			"target":34962
		},
		{
			"buffer":0,
			"byteLength":828,
			"byteOffset":27360,
			"target":34963
		}
	],
	"buffers":[
		{
			"byteLength":28188,
			"uri":"data:application/octet-stream;base64,"
		}
	]
}
