{
	"asset":{
		"generator":"Khronos glTF Blender I/O v3.5.30",
		"version":"2.0"
	},
	"extensionsUsed":[
		"KHR_materials_clearcoat",
		"KHR_materials_specular",
		"KHR_materials_ior"
	],
	"scene":0,
	"scenes":[
		{
			"name":"Scene",
			"nodes":[
				0,
				1,
				2,
				3,
				4,
				5,
				6,
				7,
				8,
				9
			]
		}
	],
	"nodes":[
		{
			"mesh":0,
			"name":"Building"
		},
		{
			"mesh":1,
			"name":"roof2"
		},
		{
			"mesh":2,
			"name":"chimney",
			"translation":[
				-3.0139083862304688,
				10,
				4
			]
		},
		{
			"mesh":3,
			"name":"Door"
		},
		{
			"mesh":4,
			"name":"Doorknob"
		},
		{
			"mesh":5,
			"name":"Window glass"
		},
		{
			"mesh":6,
			"name":"Window Frame"
		},
		{
			"mesh":7,
			"name":"Garage panel"
		},
		{
			"mesh":8,
			"name":"chimney.001",
			"translation":[
				-3.0139083862304688,
				10,
				1
			]
		},
		{
			"mesh":9,
			"name":"chimney.002",
			"translation":[
				-3.0139083862304688,
				10,
				-2
			]
		}
	],
	"materials":[
		{
			"doubleSided":true,
			"name":"Material.001",
			"pbrMetallicRoughness":{
				"baseColorFactor":[
					0.20196770131587982,
					0.20958100259304047,
					0.3119048476219177,
					1
				],
				"metallicFactor":0,
				"roughnessFactor":0.5
			}
		},
		{
			"doubleSided":true,
			"name":"Material.006",
			"pbrMetallicRoughness":{
				"baseColorFactor":[
					0.31179729104042053,
					0.38909080624580383,
					0.46666625142097473,
					1
				],
				"metallicFactor":0,
				"roughnessFactor":0.0752212405204773
			}
		},
		{
			"doubleSided":true,
			"name":"Material.002",
			"pbrMetallicRoughness":{
				"baseColorFactor":[
					1,
					0.6357492208480835,
					0.6221708059310913,
					1
				],
				"metallicFactor":0,
				"roughnessFactor":0.5
			}
		},
		{
			"doubleSided":true,
			"name":"Material.003",
			"pbrMetallicRoughness":{
				"baseColorFactor":[
					0.737167477607727,
					1,
					0.7417117357254028,
					1
				],
				"metallicFactor":0.6548672318458557,
				"roughnessFactor":0.3407079577445984
			}
		},
		{
			"doubleSided":true,
			"name":"Material.004",
			"pbrMetallicRoughness":{
				"baseColorFactor":[
					0,
					0,
					0,
					1
				],
				"roughnessFactor":0.013274341821670532
			}
		},
		{
			"doubleSided":true,
			"name":"Material",
			"pbrMetallicRoughness":{
				"baseColorFactor":[
					0.800000011920929,
					0.800000011920929,
					0.800000011920929,
					1
				],
				"metallicFactor":0,
				"roughnessFactor":0
			}
		},
		{
			"doubleSided":true,
			"extensions":{
				"KHR_materials_clearcoat":{
					"clearcoatFactor":0.4247787594795227,
					"clearcoatRoughnessFactor":0.029999999329447746
				},
				"KHR_materials_specular":{
					"specularColorFactor":[
						1.6811289492088919,
						1.0248613393688242,
						0.6642331883673696
					]
				},
				"KHR_materials_ior":{
					"ior":1.4500000476837158
				}
			},
			"name":"Material.007",
			"pbrMetallicRoughness":{
				"baseColorFactor":[
					0.034860026091337204,
					0.014712629839777946,
					0.003641356248408556,
					1
				],
				"metallicFactor":0.32743361592292786,
				"roughnessFactor":0.5
			}
		},
		{
			"doubleSided":true,
			"name":"Material.005",
			"pbrMetallicRoughness":{
				"baseColorFactor":[
					0.3316628336906433,
					0.3316628336906433,
					0.3316628336906433,
					1
				],
				"metallicFactor":0.9380530714988708,
				"roughnessFactor":0.5
			}
		}
	],
	"meshes":[
		{
			"name":"Cube",
			"primitives":[
				{
					"attributes":{
						"POSITION":0,
						"TEXCOORD_0":1,
						"NORMAL":2
					},
					"indices":3,
					"material":0
				}
			]
		},
		{
			"name":"Cube.001",
			"primitives":[
				{
					"attributes":{
						"POSITION":4,
						"TEXCOORD_0":5,
						"NORMAL":6
					},
					"indices":7,
					"material":1
				}
			]
		},
		{
			"name":"Cylinder",
			"primitives":[
				{
					"attributes":{
						"POSITION":8,
						"TEXCOORD_0":9,
						"NORMAL":10
					},
					"indices":11,
					"material":2
				}
			]
		},
		{
			"name":"Cube.002",
			"primitives":[
				{
					"attributes":{
						"POSITION":12,
						"TEXCOORD_0":13,
						"NORMAL":14
					},
					"indices":15,
					"material":3
				}
			]
		},
		{
			"name":"Cube.003",
			"primitives":[
				{
					"attributes":{
						"POSITION":16,
						"TEXCOORD_0":17,
						"NORMAL":18
					},
					"indices":19,
					"material":4
				}
			]
		},
		{
			"name":"Cube.004",
			"primitives":[
				{
					"attributes":{
						"POSITION":20,
						"TEXCOORD_0":21,
						"NORMAL":22
					},
					"indices":23,
					"material":5
				}
			]
		},
		{
			"name":"Cube.005",
			"primitives":[
				{
					"attributes":{
						"POSITION":24,
						"TEXCOORD_0":25,
						"NORMAL":26
					},
					"indices":27,
					"material":6
				}
			]
		},
		{
			"name":"Cube.006",
			"primitives":[
				{
					"attributes":{
						"POSITION":28,
						"TEXCOORD_0":29,
						"NORMAL":30
					},
					"indices":31,
					"material":7
				}
			]
		},
		{
			"name":"Cylinder.001",
			"primitives":[
				{
					"attributes":{
						"POSITION":32,
						"TEXCOORD_0":33,
						"NORMAL":34
					},
					"indices":11,
					"material":2
				}
			]
		},
		{
			"name":"Cylinder.002",
			"primitives":[
				{
					"attributes":{
						"POSITION":35,
						"TEXCOORD_0":36,
						"NORMAL":37
					},
					"indices":11,
					"material":2
				}
			]
		}
	],
	"accessors":[
		{
			"bufferView":0,
			"componentType":5126,
			"count":238,
			"max":[
				5.747951030731201,
				8.543614387512207,
				6.2092671394348145
			],
			"min":[
				-5.747951030731201,
				0,
				-14.104494094848633
			],
			"type":"VEC3"
		},
		{
			"bufferView":1,
			"componentType":5126,
			"count":238,
			"type":"VEC2"
		},
		{
			"bufferView":2,
			"componentType":5126,
			"count":238,
			"type":"VEC3"
		},
		{
			"bufferView":3,
			"componentType":5123,
			"count":678,
			"type":"SCALAR"
		},
		{
			"bufferView":4,
			"componentType":5126,
			"count":38,
			"max":[
				4.710195064544678,
				8.251288414001465,
				-5.332976341247559
			],
			"min":[
				-2.27567982673645,
				5.311065673828125,
				-14.104850769042969
			],
			"type":"VEC3"
		},
		{
			"bufferView":5,
			"componentType":5126,
			"count":38,
			"type":"VEC2"
		},
		{
			"bufferView":6,
			"componentType":5126,
			"count":38,
			"type":"VEC3"
		},
		{
			"bufferView":7,
			"componentType":5123,
			"count":60,
			"type":"SCALAR"
		},
		{
			"bufferView":8,
			"componentType":5126,
			"count":384,
			"max":[
				1,
				4.467231750488281,
				1
			],
			"min":[
				-1,
				-1.6293565034866333,
				-1
			],
			"type":"VEC3"
		},
		{
			"bufferView":9,
			"componentType":5126,
			"count":384,
			"type":"VEC2"
		},
		{
			"bufferView":10,
			"componentType":5126,
			"count":384,
			"type":"VEC3"
		},
		{
			"bufferView":11,
			"componentType":5123,
			"count":756,
			"type":"SCALAR"
		},
		{
			"bufferView":12,
			"componentType":5126,
			"count":12,
			"max":[
				4.249888896942139,
				3.418133497238159,
				-11.81828784942627
			],
			"min":[
				4.249888896942139,
				0.06469804048538208,
				-13.639932632446289
			],
			"type":"VEC3"
		},
		{
			"bufferView":13,
			"componentType":5126,
			"count":12,
			"type":"VEC2"
		},
		{
			"bufferView":14,
			"componentType":5126,
			"count":12,
			"type":"VEC3"
		},
		{
			"bufferView":15,
			"componentType":5123,
			"count":48,
			"type":"SCALAR"
		},
		{
			"bufferView":16,
			"componentType":5126,
			"count":40,
			"max":[
				4.388964653015137,
				1.7929327487945557,
				-13.14450454711914
			],
			"min":[
				4.249888896942139,
				1.6898987293243408,
				-13.462931632995605
			],
			"type":"VEC3"
		},
		{
			"bufferView":17,
			"componentType":5126,
			"count":40,
			"type":"VEC2"
		},
		{
			"bufferView":18,
			"componentType":5126,
			"count":40,
			"type":"VEC3"
		},
		{
			"bufferView":19,
			"componentType":5123,
			"count":78,
			"type":"SCALAR"
		},
		{
			"bufferView":20,
			"componentType":5126,
			"count":12,
			"max":[
				5.70626163482666,
				6.9483771324157715,
				4.443924427032471
			],
			"min":[
				5.70626163482666,
				1.6353297233581543,
				-3.5676608085632324
			],
			"type":"VEC3"
		},
		{
			"bufferView":21,
			"componentType":5126,
			"count":12,
			"type":"VEC2"
		},
		{
			"bufferView":22,
			"componentType":5126,
			"count":12,
			"type":"VEC3"
		},
		{
			"bufferView":23,
			"componentType":5123,
			"count":18,
			"type":"SCALAR"
		},
		{
			"bufferView":24,
			"componentType":5126,
			"count":72,
			"max":[
				5.747951030731201,
				7.064824104309082,
				4.560371398925781
			],
			"min":[
				5.70626163482666,
				1.5188827514648438,
				-3.684107780456543
			],
			"type":"VEC3"
		},
		{
			"bufferView":25,
			"componentType":5126,
			"count":72,
			"type":"VEC2"
		},
		{
			"bufferView":26,
			"componentType":5126,
			"count":72,
			"type":"VEC3"
		},
		{
			"bufferView":27,
			"componentType":5123,
			"count":144,
			"type":"SCALAR"
		},
		{
			"bufferView":28,
			"componentType":5126,
			"count":36,
			"max":[
				4.249888896942139,
				4.745690822601318,
				-5.713897228240967
			],
			"min":[
				4.210065841674805,
				0.06899067759513855,
				-9.337854385375977
			],
			"type":"VEC3"
		},
		{
			"bufferView":29,
			"componentType":5126,
			"count":36,
			"type":"VEC2"
		},
		{
			"bufferView":30,
			"componentType":5126,
			"count":36,
			"type":"VEC3"
		},
		{
			"bufferView":31,
			"componentType":5123,
			"count":54,
			"type":"SCALAR"
		},
		{
			"bufferView":32,
			"componentType":5126,
			"count":384,
			"max":[
				1,
				4.467231750488281,
				1
			],
			"min":[
				-1,
				-1.6293565034866333,
				-1
			],
			"type":"VEC3"
		},
		{
			"bufferView":33,
			"componentType":5126,
			"count":384,
			"type":"VEC2"
		},
		{
			"bufferView":34,
			"componentType":5126,
			"count":384,
			"type":"VEC3"
		},
		{
			"bufferView":35,
			"componentType":5126,
			"count":384,
			"max":[
				1,
				4.467231750488281,
				1
			],
			"min":[
				-1,
				-1.6293565034866333,
				-1
			],
			"type":"VEC3"
		},
		{
			"bufferView":36,
			"componentType":5126,
			"count":384,
			"type":"VEC2"
		},
		{
			"bufferView":37,
			"componentType":5126,
			"count":384,
			"type":"VEC3"
		}
	],
	"bufferViews":[
		{
			"buffer":0,
			"byteLength":2856,
			"byteOffset":0,
			"target":34962
		},
		{
			"buffer":0,
			"byteLength":1904,
			"byteOffset":2856,
			"target":34962
		},
		{
			"buffer":0,
			"byteLength":2856,
			"byteOffset":4760,
			"target":34962
		},
		{
			"buffer":0,
			"byteLength":1356,
			"byteOffset":7616,
			"target":34963
		},
		{
			"buffer":0,
			"byteLength":456,
			"byteOffset":8972,
			"target":34962
		},
		{
			"buffer":0,
			"byteLength":304,
			"byteOffset":9428,
			"target":34962
		},
		{
			"buffer":0,
			"byteLength":456,
			"byteOffset":9732,
			"target":34962
		},
		{
			"buffer":0,
			"byteLength":120,
			"byteOffset":10188,
			"target":34963
		},
		{
			"buffer":0,
			"byteLength":4608,
			"byteOffset":10308,
			"target":34962
		},
		{
			"buffer":0,
			"byteLength":3072,
			"byteOffset":14916,
			"target":34962
		},
		{
			"buffer":0,
			"byteLength":4608,
			"byteOffset":17988,
			"target":34962
		},
		{
			"buffer":0,
			"byteLength":1512,
			"byteOffset":22596,
			"target":34963
		},
		{
			"buffer":0,
			"byteLength":144,
			"byteOffset":24108,
			"target":34962
		},
		{
			"buffer":0,
			"byteLength":96,
			"byteOffset":24252,
			"target":34962
		},
		{
			"buffer":0,
			"byteLength":144,
			"byteOffset":24348,
			"target":34962
		},
		{
			"buffer":0,
			"byteLength":96,
			"byteOffset":24492,
			"target":34963
		},
		{
			"buffer":0,
			"byteLength":480,
			"byteOffset":24588,
			"target":34962
		},
		{
			"buffer":0,
			"byteLength":320,
			"byteOffset":25068,
			"target":34962
		},
		{
			"buffer":0,
			"byteLength":480,
			"byteOffset":25388,
			"target":34962
		},
		{
			"buffer":0,
			"byteLength":156,
			"byteOffset":25868,
			"target":34963
		},
		{
			"buffer":0,
			"byteLength":144,
			"byteOffset":26024,
			"target":34962
		},
		{
			"buffer":0,
			"byteLength":96,
			"byteOffset":26168,
			"target":34962
		},
		{
			"buffer":0,
			"byteLength":144,
			"byteOffset":26264,
			"target":34962
		},
		{
			"buffer":0,
			"byteLength":36,
			"byteOffset":26408,
			"target":34963
		},
		{
			"buffer":0,
			"byteLength":864,
			"byteOffset":26444,
			"target":34962
		},
		{
			"buffer":0,
			"byteLength":576,
			"byteOffset":27308,
			"target":34962
		},
		{
			"buffer":0,
			"byteLength":864,
			"byteOffset":27884,
			"target":34962
		},
		{
			"buffer":0,
			"byteLength":288,
			"byteOffset":28748,
			"target":34963
		},
		{
			"buffer":0,
			"byteLength":432,
			"byteOffset":29036,
			"target":34962
		},
		{
			"buffer":0,
			"byteLength":288,
			"byteOffset":29468,
			"target":34962
		},
		{
			"buffer":0,
			"byteLength":432,
			"byteOffset":29756,
			"target":34962
		},
		{
			"buffer":0,
			"byteLength":108,
			"byteOffset":30188,
			"target":34963
		},
		{
			"buffer":0,
			"byteLength":4608,
			"byteOffset":30296,
			"target":34962
		},
		{
			"buffer":0,
			"byteLength":3072,
			"byteOffset":34904,
			"target":34962
		},
		{
			"buffer":0,
			"byteLength":4608,
			"byteOffset":37976,
			"target":34962
		},
		{
			"buffer":0,
			"byteLength":4608,
			"byteOffset":42584,
			"target":34962
		},
		{
			"buffer":0,
			"byteLength":3072,
			"byteOffset":47192,
			"target":34962
		},
		{
			"buffer":0,
			"byteLength":4608,
			"byteOffset":50264,
			"target":34962
		}
	],
	"buffers":[
		{
			"byteLength":54872,
			"uri":"data:application/octet-stream;base64,"
		}
	]
}
