{
	"asset":{
		"generator":"Khronos glTF Blender I/O v3.5.30",
		"version":"2.0"
	},
	"extensionsUsed":[
		"KHR_materials_clearcoat",
		"KHR_materials_specular",
		"KHR_materials_ior"
	],
	"scene":0,
	"scenes":[
		{
			"name":"Scene",
			"nodes":[
				0,
				1,
				2,
				3,
				4,
				5,
				6,
				7,
				8
			]
		}
	],
	"nodes":[
		{
			"mesh":0,
			"name":"Roof"
		},
		{
			"mesh":1,
			"name":"roof wall"
		},
		{
			"mesh":2,
			"name":"walls"
		},
		{
			"mesh":3,
			"name":"doors"
		},
		{
			"mesh":4,
			"name":"doorknobs"
		},
		{
			"mesh":5,
			"name":"Window"
		},
		{
			"mesh":6,
			"name":"balcony"
		},
		{
			"mesh":7,
			"name":"mailbox stick"
		},
		{
			"mesh":8,
			"name":"mail box"
		}
	],
	"materials":[
		{
			"doubleSided":true,
			"name":"Material.006",
			"pbrMetallicRoughness":{
				"baseColorFactor":[
					0.9785715341567993,
					0.06852397322654724,
					0.16899515688419342,
					1
				],
				"metallicFactor":0,
				"roughnessFactor":0.5
			}
		},
		{
			"doubleSided":true,
			"name":"Material.007",
			"pbrMetallicRoughness":{
				"baseColorFactor":[
					0.6333333253860474,
					0.6044785380363464,
					0.4492572546005249,
					1
				],
				"metallicFactor":0,
				"roughnessFactor":0.5
			}
		},
		{
			"doubleSided":true,
			"name":"Material.008",
			"pbrMetallicRoughness":{
				"baseColorFactor":[
					0.9845238924026489,
					0.9611643552780151,
					0.7265422940254211,
					1
				],
				"metallicFactor":0,
				"roughnessFactor":0.5
			}
		},
		{
			"doubleSided":true,
			"name":"Material.003",
			"pbrMetallicRoughness":{
				"baseColorFactor":[
					0.45476198196411133,
					0.18418346345424652,
					0.0518813394010067,
					1
				],
				"metallicFactor":0,
				"roughnessFactor":0.5
			}
		},
		{
			"doubleSided":true,
			"name":"Material.002",
			"pbrMetallicRoughness":{
				"baseColorFactor":[
					0.21403563022613525,
					0.21403563022613525,
					0.21403563022613525,
					1
				],
				"metallicFactor":0.7079645991325378,
				"roughnessFactor":0.5
			}
		},
		{
			"doubleSided":true,
			"name":"Material.009",
			"pbrMetallicRoughness":{
				"baseColorFactor":[
					0.5321428775787354,
					0.5321428775787354,
					0.5321428775787354,
					0.221238911151886
				],
				"metallicFactor":0,
				"roughnessFactor":0.5
			}
		},
		{
			"doubleSided":true,
			"name":"Material.001",
			"pbrMetallicRoughness":{
				"baseColorFactor":[
					0.8000000715255737,
					0.14398425817489624,
					0.09929150342941284,
					1
				],
				"metallicFactor":0,
				"roughnessFactor":0.5
			}
		},
		{
			"doubleSided":true,
			"name":"Material.005",
			"pbrMetallicRoughness":{
				"baseColorFactor":[
					0.09761911630630493,
					0.021758727729320526,
					0.00025479443138465285,
					1
				],
				"metallicFactor":0,
				"roughnessFactor":0.5
			}
		},
		{
			"doubleSided":true,
			"extensions":{
				"KHR_materials_clearcoat":{
					"clearcoatFactor":0.6017699241638184,
					"clearcoatRoughnessFactor":0.029999999329447746
				},
				"KHR_materials_specular":{
					"specularColorFactor":[
						1.9201701274948897,
						1.9201701274948897,
						1.9201701274948897
					]
				},
				"KHR_materials_ior":{
					"ior":1.4500000476837158
				}
			},
			"name":"Material.004",
			"pbrMetallicRoughness":{
				"baseColorFactor":[
					0.41309523582458496,
					0.41309523582458496,
					0.41309523582458496,
					1
				],
				"metallicFactor":0,
				"roughnessFactor":0.5
			}
		}
	],
	"meshes":[
		{
			"name":"Cube.003",
			"primitives":[
				{
					"attributes":{
						"POSITION":0,
						"TEXCOORD_0":1,
						"NORMAL":2
					},
					"indices":3,
					"material":0
				}
			]
		},
		{
			"name":"Cube.004",
			"primitives":[
				{
					"attributes":{
						"POSITION":4,
						"TEXCOORD_0":5,
						"NORMAL":6
					},
					"indices":7,
					"material":1
				}
			]
		},
		{
			"name":"Cube.005",
			"primitives":[
				{
					"attributes":{
						"POSITION":8,
						"TEXCOORD_0":9,
						"NORMAL":10
					},
					"indices":11,
					"material":2
				}
			]
		},
		{
			"name":"Cube.006",
			"primitives":[
				{
					"attributes":{
						"POSITION":12,
						"TEXCOORD_0":13,
						"NORMAL":14
					},
					"indices":15,
					"material":3
				}
			]
		},
		{
			"name":"Cube.007",
			"primitives":[
				{
					"attributes":{
						"POSITION":16,
						"TEXCOORD_0":17,
						"NORMAL":18
					},
					"indices":19,
					"material":4
				}
			]
		},
		{
			"name":"Cube.008",
			"primitives":[
				{
					"attributes":{
						"POSITION":20,
						"TEXCOORD_0":21,
						"NORMAL":22
					},
					"indices":23,
					"material":5
				}
			]
		},
		{
			"name":"Cube.009",
			"primitives":[
				{
					"attributes":{
						"POSITION":24,
						"TEXCOORD_0":25,
						"NORMAL":26
					},
					"indices":27,
					"material":6
				}
			]
		},
		{
			"name":"Cube.011",
			"primitives":[
				{
					"attributes":{
						"POSITION":28,
						"TEXCOORD_0":29,
						"NORMAL":30
					},
					"indices":31,
					"material":7
				}
			]
		},
		{
			"name":"Cube.012",
			"primitives":[
				{
					"attributes":{
						"POSITION":32,
						"TEXCOORD_0":33,
						"NORMAL":34
					},
					"indices":35,
					"material":8
				}
			]
		}
	],
	"accessors":[
		{
			"bufferView":0,
			"componentType":5126,
			"count":64,
			"max":[
				2.498464584350586,
				8.059629440307617,
				2.6056911945343018
			],
			"min":[
				-2.489013910293579,
				5.982054233551025,
				-2.6056911945343018
			],
			"type":"VEC3"
		},
		{
			"bufferView":1,
			"componentType":5126,
			"count":64,
			"type":"VEC2"
		},
		{
			"bufferView":2,
			"componentType":5126,
			"count":64,
			"type":"VEC3"
		},
		{
			"bufferView":3,
			"componentType":5123,
			"count":132,
			"type":"SCALAR"
		},
		{
			"bufferView":4,
			"componentType":5126,
			"count":6,
			"max":[
				2.299999952316284,
				7.995052337646484,
				2.6056911945343018
			],
			"min":[
				-2.299999952316284,
				5.982054233551025,
				-2.6056911945343018
			],
			"type":"VEC3"
		},
		{
			"bufferView":5,
			"componentType":5126,
			"count":6,
			"type":"VEC2"
		},
		{
			"bufferView":6,
			"componentType":5126,
			"count":6,
			"type":"VEC3"
		},
		{
			"bufferView":7,
			"componentType":5123,
			"count":6,
			"type":"SCALAR"
		},
		{
			"bufferView":8,
			"componentType":5126,
			"count":40,
			"max":[
				2.299999952316284,
				5.982054233551025,
				2.6056911945343018
			],
			"min":[
				-2.299999952316284,
				-0.015547633171081543,
				-2.6056911945343018
			],
			"type":"VEC3"
		},
		{
			"bufferView":9,
			"componentType":5126,
			"count":40,
			"type":"VEC2"
		},
		{
			"bufferView":10,
			"componentType":5126,
			"count":40,
			"type":"VEC3"
		},
		{
			"bufferView":11,
			"componentType":5123,
			"count":114,
			"type":"SCALAR"
		},
		{
			"bufferView":12,
			"componentType":5126,
			"count":48,
			"max":[
				2.299999952316284,
				5.398751258850098,
				1.6031063795089722
			],
			"min":[
				2.2651474475860596,
				-0.014240384101867676,
				-0.5557634234428406
			],
			"type":"VEC3"
		},
		{
			"bufferView":13,
			"componentType":5126,
			"count":48,
			"type":"VEC2"
		},
		{
			"bufferView":14,
			"componentType":5126,
			"count":48,
			"type":"VEC3"
		},
		{
			"bufferView":15,
			"componentType":5123,
			"count":96,
			"type":"SCALAR"
		},
		{
			"bufferView":16,
			"componentType":5126,
			"count":84,
			"max":[
				2.333219289779663,
				4.340110778808594,
				0.880617082118988
			],
			"min":[
				2.2651474475860596,
				0.7233506441116333,
				-0.4156702756881714
			],
			"type":"VEC3"
		},
		{
			"bufferView":17,
			"componentType":5126,
			"count":84,
			"type":"VEC2"
		},
		{
			"bufferView":18,
			"componentType":5126,
			"count":84,
			"type":"VEC3"
		},
		{
			"bufferView":19,
			"componentType":5123,
			"count":150,
			"type":"SCALAR"
		},
		{
			"bufferView":20,
			"componentType":5126,
			"count":20,
			"max":[
				2.299999952316284,
				1.624861240386963,
				-0.37344667315483093
			],
			"min":[
				2.286062479019165,
				0.7129291892051697,
				-1.0535316467285156
			],
			"type":"VEC3"
		},
		{
			"bufferView":21,
			"componentType":5126,
			"count":20,
			"type":"VEC2"
		},
		{
			"bufferView":22,
			"componentType":5126,
			"count":20,
			"type":"VEC3"
		},
		{
			"bufferView":23,
			"componentType":5123,
			"count":30,
			"type":"SCALAR"
		},
		{
			"bufferView":24,
			"componentType":5126,
			"count":56,
			"max":[
				3.3953943252563477,
				4.277614593505859,
				1.3898526430130005
			],
			"min":[
				2.299999952316284,
				3.105551242828369,
				-1.3898526430130005
			],
			"type":"VEC3"
		},
		{
			"bufferView":25,
			"componentType":5126,
			"count":56,
			"type":"VEC2"
		},
		{
			"bufferView":26,
			"componentType":5126,
			"count":56,
			"type":"VEC3"
		},
		{
			"bufferView":27,
			"componentType":5123,
			"count":102,
			"type":"SCALAR"
		},
		{
			"bufferView":28,
			"componentType":5126,
			"count":20,
			"max":[
				2.03071928024292,
				0.661557674407959,
				-3.0833818912506104
			],
			"min":[
				1.9338759183883667,
				-0.014647424221038818,
				-3.1800334453582764
			],
			"type":"VEC3"
		},
		{
			"bufferView":29,
			"componentType":5126,
			"count":20,
			"type":"VEC2"
		},
		{
			"bufferView":30,
			"componentType":5126,
			"count":20,
			"type":"VEC3"
		},
		{
			"bufferView":31,
			"componentType":5123,
			"count":30,
			"type":"SCALAR"
		},
		{
			"bufferView":32,
			"componentType":5126,
			"count":78,
			"max":[
				2.1460483074188232,
				0.9628127217292786,
				-2.921200752258301
			],
			"min":[
				1.816406011581421,
				0.661557674407959,
				-3.3368663787841797
			],
			"type":"VEC3"
		},
		{
			"bufferView":33,
			"componentType":5126,
			"count":78,
			"type":"VEC2"
		},
		{
			"bufferView":34,
			"componentType":5126,
			"count":78,
			"type":"VEC3"
		},
		{
			"bufferView":35,
			"componentType":5123,
			"count":138,
			"type":"SCALAR"
		}
	],
	"bufferViews":[
		{
			"buffer":0,
			"byteLength":768,
			"byteOffset":0,
			"target":34962
		},
		{
			"buffer":0,
			"byteLength":512,
			"byteOffset":768,
			"target":34962
		},
		{
			"buffer":0,
			"byteLength":768,
			"byteOffset":1280,
			"target":34962
		},
		{
			"buffer":0,
			"byteLength":264,
			"byteOffset":2048,
			"target":34963
		},
		{
			"buffer":0,
			"byteLength":72,
			"byteOffset":2312,
			"target":34962
		},
		{
			"buffer":0,
			"byteLength":48,
			"byteOffset":2384,
			"target":34962
		},
		{
			"buffer":0,
			"byteLength":72,
			"byteOffset":2432,
			"target":34962
		},
		{
			"buffer":0,
			"byteLength":12,
			"byteOffset":2504,
			"target":34963
		},
		{
			"buffer":0,
			"byteLength":480,
			"byteOffset":2516,
			"target":34962
		},
		{
			"buffer":0,
			"byteLength":320,
			"byteOffset":2996,
			"target":34962
		},
		{
			"buffer":0,
			"byteLength":480,
			"byteOffset":3316,
			"target":34962
		},
		{
			"buffer":0,
			"byteLength":228,
			"byteOffset":3796,
			"target":34963
		},
		{
			"buffer":0,
			"byteLength":576,
			"byteOffset":4024,
			"target":34962
		},
		{
			"buffer":0,
			"byteLength":384,
			"byteOffset":4600,
			"target":34962
		},
		{
			"buffer":0,
			"byteLength":576,
			"byteOffset":4984,
			"target":34962
		},
		{
			"buffer":0,
			"byteLength":192,
			"byteOffset":5560,
			"target":34963
		},
		{
			"buffer":0,
			"byteLength":1008,
			"byteOffset":5752,
			"target":34962
		},
		{
			"buffer":0,
			"byteLength":672,
			"byteOffset":6760,
			"target":34962
		},
		{
			"buffer":0,
			"byteLength":1008,
			"byteOffset":7432,
			"target":34962
		},
		{
			"buffer":0,
			"byteLength":300,
			"byteOffset":8440,
			"target":34963
		},
		{
			"buffer":0,
			"byteLength":240,
			"byteOffset":8740,
			"target":34962
		},
		{
			"buffer":0,
			"byteLength":160,
			"byteOffset":8980,
			"target":34962
		},
		{
			"buffer":0,
			"byteLength":240,
			"byteOffset":9140,
			"target":34962
		},
		{
			"buffer":0,
			"byteLength":60,
			"byteOffset":9380,
			"target":34963
		},
		{
			"buffer":0,
			"byteLength":672,
			"byteOffset":9440,
			"target":34962
		},
		{
			"buffer":0,
			"byteLength":448,
			"byteOffset":10112,
			"target":34962
		},
		{
			"buffer":0,
			"byteLength":672,
			"byteOffset":10560,
			"target":34962
		},
		{
			"buffer":0,
			"byteLength":204,
			"byteOffset":11232,
			"target":34963
		},
		{
			"buffer":0,
			"byteLength":240,
			"byteOffset":11436,
			"target":34962
		},
		{
			"buffer":0,
			"byteLength":160,
			"byteOffset":11676,
			"target":34962
		},
		{
			"buffer":0,
			"byteLength":240,
			"byteOffset":11836,
			"target":34962
		},
		{
			"buffer":0,
			"byteLength":60,
			"byteOffset":12076,
			"target":34963
		},
		{
			"buffer":0,
			"byteLength":936,
			"byteOffset":12136,
			"target":34962
		},
		{
			"buffer":0,
			"byteLength":624,
			"byteOffset":13072,
			"target":34962
		},
		{
			"buffer":0,
			"byteLength":936,
			"byteOffset":13696,
			"target":34962
		},
		{
			"buffer":0,
			"byteLength":276,
			"byteOffset":14632,
			"target":34963
		}
	],
	"buffers":[
		{
			"byteLength":14908,
			"uri":"data:application/octet-stream;base64,"
		}
	]
}
