{
	"asset":{
		"generator":"Khronos glTF Blender I/O v3.5.30",
		"version":"2.0"
	},
	"scene":0,
	"scenes":[
		{
			"name":"Scene",
			"nodes":[
				0,
				1,
				2,
				3,
				4,
				5,
				6,
				7,
				8,
				9,
				10,
				11,
				12,
				13,
				14,
				15
			]
		}
	],
	"nodes":[
		{
			"mesh":0,
			"name":"Building",
			"scale":[
				1,
				1,
				5
			],
			"translation":[
				0,
				1,
				0
			]
		},
		{
			"mesh":1,
			"name":"Sign",
			"scale":[
				1,
				1,
				5
			],
			"translation":[
				0,
				1,
				0
			]
		},
		{
			"mesh":2,
			"name":"Sign Border",
			"scale":[
				1,
				1,
				5
			],
			"translation":[
				0,
				1,
				0
			]
		},
		{
			"mesh":3,
			"name":"Roof part",
			"scale":[
				1,
				1,
				5
			],
			"translation":[
				0,
				1,
				0
			]
		},
		{
			"mesh":4,
			"name":"Door Frame",
			"scale":[
				1,
				1,
				5
			],
			"translation":[
				0,
				1,
				0
			]
		},
		{
			"mesh":5,
			"name":"Door",
			"scale":[
				1,
				1,
				5
			],
			"translation":[
				0,
				1,
				0
			]
		},
		{
			"mesh":6,
			"name":"Door Knob",
			"scale":[
				1,
				1,
				5
			],
			"translation":[
				0,
				1,
				0
			]
		},
		{
			"mesh":7,
			"name":"Kart",
			"translation":[
				0,
				2,
				-9.199999809265137
			]
		},
		{
			"mesh":8,
			"name":"Kart wheels",
			"rotation":[
				0.5,
				-0.49999988079071045,
				-0.5,
				0.5000001192092896
			],
			"scale":[
				-0.18359851837158203,
				-0.18359851837158203,
				-0.18359851837158203
			],
			"translation":[
				-2,
				0.23282726109027863,
				-8.2645902633667
			]
		},
		{
			"mesh":9,
			"name":"Kart handle",
			"translation":[
				0,
				2,
				-9.199999809265137
			]
		},
		{
			"mesh":10,
			"name":"Kart.001",
			"translation":[
				-4,
				2,
				-9.199999809265137
			]
		},
		{
			"mesh":11,
			"name":"Kart wheels.001",
			"rotation":[
				0.5,
				-0.49999988079071045,
				-0.5,
				0.5000001192092896
			],
			"scale":[
				-0.18359851837158203,
				-0.18359851837158203,
				-0.18359851837158203
			],
			"translation":[
				-6,
				0.23282726109027863,
				-8.2645902633667
			]
		},
		{
			"mesh":12,
			"name":"Kart handle.001",
			"translation":[
				-4,
				2,
				-9.199999809265137
			]
		},
		{
			"mesh":13,
			"name":"Kart.002",
			"translation":[
				-8,
				2,
				-9.199999809265137
			]
		},
		{
			"mesh":14,
			"name":"Kart wheels.002",
			"rotation":[
				0.5,
				-0.49999988079071045,
				-0.5,
				0.5000001192092896
			],
			"scale":[
				-0.18359851837158203,
				-0.18359851837158203,
				-0.18359851837158203
			],
			"translation":[
				-10,
				0.23282726109027863,
				-8.2645902633667
			]
		},
		{
			"mesh":15,
			"name":"Kart handle.002",
			"translation":[
				-8,
				2,
				-9.199999809265137
			]
		}
	],
	"materials":[
		{
			"doubleSided":true,
			"name":"Material.002",
			"pbrMetallicRoughness":{
				"baseColorFactor":[
					0.8000000715255737,
					0.28742870688438416,
					0.2667273283004761,
					1
				],
				"metallicFactor":0,
				"roughnessFactor":0.9601770043373108
			}
		},
		{
			"doubleSided":true,
			"name":"Material.012",
			"pbrMetallicRoughness":{
				"baseColorFactor":[
					1,
					0.9303622245788574,
					0.07341377437114716,
					1
				],
				"metallicFactor":0,
				"roughnessFactor":0.5
			}
		},
		{
			"doubleSided":true,
			"name":"Material.013",
			"pbrMetallicRoughness":{
				"baseColorFactor":[
					0.5053703188896179,
					0.20450429618358612,
					0.045000407844781876,
					1
				],
				"metallicFactor":0,
				"roughnessFactor":0.5
			}
		},
		{
			"doubleSided":true,
			"name":"Material.011",
			"pbrMetallicRoughness":{
				"baseColorFactor":[
					0.4479800760746002,
					0.011208722367882729,
					0.00786424521356821,
					1
				],
				"metallicFactor":0,
				"roughnessFactor":0.5
			}
		},
		{
			"doubleSided":true,
			"name":"Material.003",
			"pbrMetallicRoughness":{
				"baseColorFactor":[
					0.3519294261932373,
					0.3519294261932373,
					0.3519294261932373,
					1
				],
				"metallicFactor":0.6814159154891968,
				"roughnessFactor":0.5
			}
		},
		{
			"doubleSided":true,
			"name":"Material.004",
			"pbrMetallicRoughness":{
				"metallicFactor":0,
				"roughnessFactor":0
			}
		},
		{
			"doubleSided":true,
			"name":"Material.005",
			"pbrMetallicRoughness":{
				"baseColorFactor":[
					0.35192933678627014,
					0.2822706401348114,
					0.19831128418445587,
					1
				],
				"metallicFactor":0,
				"roughnessFactor":0.5
			}
		},
		{
			"doubleSided":true,
			"name":"Material.006",
			"pbrMetallicRoughness":{
				"baseColorFactor":[
					0.48856091499328613,
					0.48856091499328613,
					0.48856091499328613,
					1
				],
				"roughnessFactor":0.5
			}
		},
		{
			"doubleSided":true,
			"name":"Material.010",
			"pbrMetallicRoughness":{
				"baseColorFactor":[
					0.004453705158084631,
					0.004453705158084631,
					0.004453705158084631,
					1
				],
				"metallicFactor":0,
				"roughnessFactor":0.5
			}
		},
		{
			"doubleSided":true,
			"name":"Material.008",
			"pbrMetallicRoughness":{
				"baseColorFactor":[
					0.1038174107670784,
					0.1038174107670784,
					0.1038174107670784,
					1
				],
				"roughnessFactor":0.5
			}
		}
	],
	"meshes":[
		{
			"name":"Cube",
			"primitives":[
				{
					"attributes":{
						"POSITION":0,
						"TEXCOORD_0":1,
						"NORMAL":2
					},
					"indices":3,
					"material":0
				}
			]
		},
		{
			"name":"Cube.001",
			"primitives":[
				{
					"attributes":{
						"POSITION":4,
						"TEXCOORD_0":5,
						"NORMAL":6
					},
					"indices":7,
					"material":1
				}
			]
		},
		{
			"name":"Cube.002",
			"primitives":[
				{
					"attributes":{
						"POSITION":8,
						"TEXCOORD_0":9,
						"NORMAL":10
					},
					"indices":11,
					"material":2
				}
			]
		},
		{
			"name":"Cube.003",
			"primitives":[
				{
					"attributes":{
						"POSITION":12,
						"TEXCOORD_0":13,
						"NORMAL":14
					},
					"indices":15,
					"material":3
				}
			]
		},
		{
			"name":"Cube.004",
			"primitives":[
				{
					"attributes":{
						"POSITION":16,
						"TEXCOORD_0":17,
						"NORMAL":18
					},
					"indices":19,
					"material":4
				}
			]
		},
		{
			"name":"Cube.005",
			"primitives":[
				{
					"attributes":{
						"POSITION":20,
						"TEXCOORD_0":21,
						"NORMAL":22
					},
					"indices":23,
					"material":5
				}
			]
		},
		{
			"name":"Cube.006",
			"primitives":[
				{
					"attributes":{
						"POSITION":24,
						"TEXCOORD_0":25,
						"NORMAL":26
					},
					"indices":27,
					"material":6
				}
			]
		},
		{
			"name":"Cube.007",
			"primitives":[
				{
					"attributes":{
						"POSITION":28,
						"TEXCOORD_0":29,
						"NORMAL":30
					},
					"indices":31,
					"material":7
				}
			]
		},
		{
			"name":"Torus.003",
			"primitives":[
				{
					"attributes":{
						"POSITION":32,
						"TEXCOORD_0":33,
						"NORMAL":34
					},
					"indices":35,
					"material":8
				}
			]
		},
		{
			"name":"Cube.008",
			"primitives":[
				{
					"attributes":{
						"POSITION":36,
						"TEXCOORD_0":37,
						"NORMAL":38
					},
					"indices":39,
					"material":9
				}
			]
		},
		{
			"name":"Cube.009",
			"primitives":[
				{
					"attributes":{
						"POSITION":40,
						"TEXCOORD_0":41,
						"NORMAL":42
					},
					"indices":31,
					"material":7
				}
			]
		},
		{
			"name":"Torus.004",
			"primitives":[
				{
					"attributes":{
						"POSITION":43,
						"TEXCOORD_0":44,
						"NORMAL":45
					},
					"indices":35,
					"material":8
				}
			]
		},
		{
			"name":"Cube.010",
			"primitives":[
				{
					"attributes":{
						"POSITION":46,
						"TEXCOORD_0":47,
						"NORMAL":48
					},
					"indices":39,
					"material":9
				}
			]
		},
		{
			"name":"Cube.011",
			"primitives":[
				{
					"attributes":{
						"POSITION":49,
						"TEXCOORD_0":50,
						"NORMAL":51
					},
					"indices":31,
					"material":7
				}
			]
		},
		{
			"name":"Torus.005",
			"primitives":[
				{
					"attributes":{
						"POSITION":52,
						"TEXCOORD_0":53,
						"NORMAL":54
					},
					"indices":35,
					"material":8
				}
			]
		},
		{
			"name":"Cube.012",
			"primitives":[
				{
					"attributes":{
						"POSITION":55,
						"TEXCOORD_0":56,
						"NORMAL":57
					},
					"indices":39,
					"material":9
				}
			]
		}
	],
	"accessors":[
		{
			"bufferView":0,
			"componentType":5126,
			"count":202,
			"max":[
				4.5,
				7.117581367492676,
				1.600000023841858
			],
			"min":[
				-10.5,
				-1,
				-1.600000023841858
			],
			"type":"VEC3"
		},
		{
			"bufferView":1,
			"componentType":5126,
			"count":202,
			"type":"VEC2"
		},
		{
			"bufferView":2,
			"componentType":5126,
			"count":202,
			"type":"VEC3"
		},
		{
			"bufferView":3,
			"componentType":5123,
			"count":534,
			"type":"SCALAR"
		},
		{
			"bufferView":4,
			"componentType":5126,
			"count":6,
			"max":[
				3.5478953108736277e-09,
				10.45704174041748,
				0.9763747453689575
			],
			"min":[
				3.5478953108736277e-09,
				7.205402851104736,
				-0.9763747453689575
			],
			"type":"VEC3"
		},
		{
			"bufferView":5,
			"componentType":5126,
			"count":6,
			"type":"VEC2"
		},
		{
			"bufferView":6,
			"componentType":5126,
			"count":6,
			"type":"VEC3"
		},
		{
			"bufferView":7,
			"componentType":5123,
			"count":12,
			"type":"SCALAR"
		},
		{
			"bufferView":8,
			"componentType":5126,
			"count":32,
			"max":[
				3.5478953108736277e-09,
				10.544862747192383,
				1
			],
			"min":[
				-0.2726750671863556,
				7.117581367492676,
				-1
			],
			"type":"VEC3"
		},
		{
			"bufferView":9,
			"componentType":5126,
			"count":32,
			"type":"VEC2"
		},
		{
			"bufferView":10,
			"componentType":5126,
			"count":32,
			"type":"VEC3"
		},
		{
			"bufferView":11,
			"componentType":5123,
			"count":72,
			"type":"SCALAR"
		},
		{
			"bufferView":12,
			"componentType":5126,
			"count":37,
			"max":[
				8.175384521484375,
				7,
				1.600000023841858
			],
			"min":[
				0,
				6,
				-1.600000023841858
			],
			"type":"VEC3"
		},
		{
			"bufferView":13,
			"componentType":5126,
			"count":37,
			"type":"VEC2"
		},
		{
			"bufferView":14,
			"componentType":5126,
			"count":37,
			"type":"VEC3"
		},
		{
			"bufferView":15,
			"componentType":5123,
			"count":48,
			"type":"SCALAR"
		},
		{
			"bufferView":16,
			"componentType":5126,
			"count":14,
			"max":[
				4.5,
				5.058745384216309,
				0.511239767074585
			],
			"min":[
				4.5,
				-0.9637344479560852,
				-0.511239767074585
			],
			"type":"VEC3"
		},
		{
			"bufferView":17,
			"componentType":5126,
			"count":14,
			"type":"VEC2"
		},
		{
			"bufferView":18,
			"componentType":5126,
			"count":14,
			"type":"VEC3"
		},
		{
			"bufferView":19,
			"componentType":5123,
			"count":36,
			"type":"SCALAR"
		},
		{
			"bufferView":20,
			"componentType":5126,
			"count":20,
			"max":[
				4.5,
				5.001680374145508,
				0.4898643493652344
			],
			"min":[
				4.5,
				-0.9617986679077148,
				-0.4898643493652344
			],
			"type":"VEC3"
		},
		{
			"bufferView":21,
			"componentType":5126,
			"count":20,
			"type":"VEC2"
		},
		{
			"bufferView":22,
			"componentType":5126,
			"count":20,
			"type":"VEC3"
		},
		{
			"bufferView":23,
			"componentType":5123,
			"count":72,
			"type":"SCALAR"
		},
		{
			"bufferView":24,
			"componentType":5126,
			"count":8,
			"max":[
				4.5,
				2.3189406394958496,
				0.07639367133378983
			],
			"min":[
				4.5,
				1.9123613834381104,
				-0.07639367133378983
			],
			"type":"VEC3"
		},
		{
			"bufferView":25,
			"componentType":5126,
			"count":8,
			"type":"VEC2"
		},
		{
			"bufferView":26,
			"componentType":5126,
			"count":8,
			"type":"VEC3"
		},
		{
			"bufferView":27,
			"componentType":5123,
			"count":12,
			"type":"SCALAR"
		},
		{
			"bufferView":28,
			"componentType":5126,
			"count":537,
			"max":[
				1.1508514881134033,
				1.1651924848556519,
				1.0709408521652222
			],
			"min":[
				-2.640751600265503,
				-1.571400761604309,
				-1.0788195133209229
			],
			"type":"VEC3"
		},
		{
			"bufferView":29,
			"componentType":5126,
			"count":537,
			"type":"VEC2"
		},
		{
			"bufferView":30,
			"componentType":5126,
			"count":537,
			"type":"VEC3"
		},
		{
			"bufferView":31,
			"componentType":5123,
			"count":1368,
			"type":"SCALAR"
		},
		{
			"bufferView":32,
			"componentType":5126,
			"count":9216,
			"max":[
				1.25,
				10.598663330078125,
				16.500669479370117
			],
			"min":[
				-1.2500029802322388,
				-0.25,
				-1.25
			],
			"type":"VEC3"
		},
		{
			"bufferView":33,
			"componentType":5126,
			"count":9216,
			"type":"VEC2"
		},
		{
			"bufferView":34,
			"componentType":5126,
			"count":9216,
			"type":"VEC3"
		},
		{
			"bufferView":35,
			"componentType":5123,
			"count":13824,
			"type":"SCALAR"
		},
		{
			"bufferView":36,
			"componentType":5126,
			"count":68,
			"max":[
				-2.3187742233276367,
				1.1651924848556519,
				1.0709408521652222
			],
			"min":[
				-2.640751600265503,
				0.8900049328804016,
				-1.0709408521652222
			],
			"type":"VEC3"
		},
		{
			"bufferView":37,
			"componentType":5126,
			"count":68,
			"type":"VEC2"
		},
		{
			"bufferView":38,
			"componentType":5126,
			"count":68,
			"type":"VEC3"
		},
		{
			"bufferView":39,
			"componentType":5123,
			"count":120,
			"type":"SCALAR"
		},
		{
			"bufferView":40,
			"componentType":5126,
			"count":537,
			"max":[
				1.1508514881134033,
				1.1651924848556519,
				1.0709408521652222
			],
			"min":[
				-2.640751600265503,
				-1.571400761604309,
				-1.0788195133209229
			],
			"type":"VEC3"
		},
		{
			"bufferView":41,
			"componentType":5126,
			"count":537,
			"type":"VEC2"
		},
		{
			"bufferView":42,
			"componentType":5126,
			"count":537,
			"type":"VEC3"
		},
		{
			"bufferView":43,
			"componentType":5126,
			"count":9216,
			"max":[
				1.25,
				10.598663330078125,
				16.500669479370117
			],
			"min":[
				-1.2500029802322388,
				-0.25,
				-1.25
			],
			"type":"VEC3"
		},
		{
			"bufferView":44,
			"componentType":5126,
			"count":9216,
			"type":"VEC2"
		},
		{
			"bufferView":45,
			"componentType":5126,
			"count":9216,
			"type":"VEC3"
		},
		{
			"bufferView":46,
			"componentType":5126,
			"count":68,
			"max":[
				-2.3187742233276367,
				1.1651924848556519,
				1.0709408521652222
			],
			"min":[
				-2.640751600265503,
				0.8900049328804016,
				-1.0709408521652222
			],
			"type":"VEC3"
		},
		{
			"bufferView":47,
			"componentType":5126,
			"count":68,
			"type":"VEC2"
		},
		{
			"bufferView":48,
			"componentType":5126,
			"count":68,
			"type":"VEC3"
		},
		{
			"bufferView":49,
			"componentType":5126,
			"count":537,
			"max":[
				1.1508514881134033,
				1.1651924848556519,
				1.0709408521652222
			],
			"min":[
				-2.640751600265503,
				-1.571400761604309,
				-1.0788195133209229
			],
			"type":"VEC3"
		},
		{
			"bufferView":50,
			"componentType":5126,
			"count":537,
			"type":"VEC2"
		},
		{
			"bufferView":51,
			"componentType":5126,
			"count":537,
			"type":"VEC3"
		},
		{
			"bufferView":52,
			"componentType":5126,
			"count":9216,
			"max":[
				1.25,
				10.598663330078125,
				16.500669479370117
			],
			"min":[
				-1.2500029802322388,
				-0.25,
				-1.25
			],
			"type":"VEC3"
		},
		{
			"bufferView":53,
			"componentType":5126,
			"count":9216,
			"type":"VEC2"
		},
		{
			"bufferView":54,
			"componentType":5126,
			"count":9216,
			"type":"VEC3"
		},
		{
			"bufferView":55,
			"componentType":5126,
			"count":68,
			"max":[
				-2.3187742233276367,
				1.1651924848556519,
				1.0709408521652222
			],
			"min":[
				-2.640751600265503,
				0.8900049328804016,
				-1.0709408521652222
			],
			"type":"VEC3"
		},
		{
			"bufferView":56,
			"componentType":5126,
			"count":68,
			"type":"VEC2"
		},
		{
			"bufferView":57,
			"componentType":5126,
			"count":68,
			"type":"VEC3"
		}
	],
	"bufferViews":[
		{
			"buffer":0,
			"byteLength":2424,
			"byteOffset":0,
			"target":34962
		},
		{
			"buffer":0,
			"byteLength":1616,
			"byteOffset":2424,
			"target":34962
		},
		{
			"buffer":0,
			"byteLength":2424,
			"byteOffset":4040,
			"target":34962
		},
		{
			"buffer":0,
			"byteLength":1068,
			"byteOffset":6464,
			"target":34963
		},
		{
			"buffer":0,
			"byteLength":72,
			"byteOffset":7532,
			"target":34962
		},
		{
			"buffer":0,
			"byteLength":48,
			"byteOffset":7604,
			"target":34962
		},
		{
			"buffer":0,
			"byteLength":72,
			"byteOffset":7652,
			"target":34962
		},
		{
			"buffer":0,
			"byteLength":24,
			"byteOffset":7724,
			"target":34963
		},
		{
			"buffer":0,
			"byteLength":384,
			"byteOffset":7748,
			"target":34962
		},
		{
			"buffer":0,
			"byteLength":256,
			"byteOffset":8132,
			"target":34962
		},
		{
			"buffer":0,
			"byteLength":384,
			"byteOffset":8388,
			"target":34962
		},
		{
			"buffer":0,
			"byteLength":144,
			"byteOffset":8772,
			"target":34963
		},
		{
			"buffer":0,
			"byteLength":444,
			"byteOffset":8916,
			"target":34962
		},
		{
			"buffer":0,
			"byteLength":296,
			"byteOffset":9360,
			"target":34962
		},
		{
			"buffer":0,
			"byteLength":444,
			"byteOffset":9656,
			"target":34962
		},
		{
			"buffer":0,
			"byteLength":96,
			"byteOffset":10100,
			"target":34963
		},
		{
			"buffer":0,
			"byteLength":168,
			"byteOffset":10196,
			"target":34962
		},
		{
			"buffer":0,
			"byteLength":112,
			"byteOffset":10364,
			"target":34962
		},
		{
			"buffer":0,
			"byteLength":168,
			"byteOffset":10476,
			"target":34962
		},
		{
			"buffer":0,
			"byteLength":72,
			"byteOffset":10644,
			"target":34963
		},
		{
			"buffer":0,
			"byteLength":240,
			"byteOffset":10716,
			"target":34962
		},
		{
			"buffer":0,
			"byteLength":160,
			"byteOffset":10956,
			"target":34962
		},
		{
			"buffer":0,
			"byteLength":240,
			"byteOffset":11116,
			"target":34962
		},
		{
			"buffer":0,
			"byteLength":144,
			"byteOffset":11356,
			"target":34963
		},
		{
			"buffer":0,
			"byteLength":96,
			"byteOffset":11500,
			"target":34962
		},
		{
			"buffer":0,
			"byteLength":64,
			"byteOffset":11596,
			"target":34962
		},
		{
			"buffer":0,
			"byteLength":96,
			"byteOffset":11660,
			"target":34962
		},
		{
			"buffer":0,
			"byteLength":24,
			"byteOffset":11756,
			"target":34963
		},
		{
			"buffer":0,
			"byteLength":6444,
			"byteOffset":11780,
			"target":34962
		},
		{
			"buffer":0,
			"byteLength":4296,
			"byteOffset":18224,
			"target":34962
		},
		{
			"buffer":0,
			"byteLength":6444,
			"byteOffset":22520,
			"target":34962
		},
		{
			"buffer":0,
			"byteLength":2736,
			"byteOffset":28964,
			"target":34963
		},
		{
			"buffer":0,
			"byteLength":110592,
			"byteOffset":31700,
			"target":34962
		},
		{
			"buffer":0,
			"byteLength":73728,
			"byteOffset":142292,
			"target":34962
		},
		{
			"buffer":0,
			"byteLength":110592,
			"byteOffset":216020,
			"target":34962
		},
		{
			"buffer":0,
			"byteLength":27648,
			"byteOffset":326612,
			"target":34963
		},
		{
			"buffer":0,
			"byteLength":816,
			"byteOffset":354260,
			"target":34962
		},
		{
			"buffer":0,
			"byteLength":544,
			"byteOffset":355076,
			"target":34962
		},
		{
			"buffer":0,
			"byteLength":816,
			"byteOffset":355620,
			"target":34962
		},
		{
			"buffer":0,
			"byteLength":240,
			"byteOffset":356436,
			"target":34963
		},
		{
			"buffer":0,
			"byteLength":6444,
			"byteOffset":356676,
			"target":34962
		},
		{
			"buffer":0,
			"byteLength":4296,
			"byteOffset":363120,
			"target":34962
		},
		{
			"buffer":0,
			"byteLength":6444,
			"byteOffset":367416,
			"target":34962
		},
		{
			"buffer":0,
			"byteLength":110592,
			"byteOffset":373860,
			"target":34962
		},
		{
			"buffer":0,
			"byteLength":73728,
			"byteOffset":484452,
			"target":34962
		},
		{
			"buffer":0,
			"byteLength":110592,
			"byteOffset":558180,
			"target":34962
		},
		{
			"buffer":0,
			"byteLength":816,
			"byteOffset":668772,
			"target":34962
		},
		{
			"buffer":0,
			"byteLength":544,
			"byteOffset":669588,
			"target":34962
		},
		{
			"buffer":0,
			"byteLength":816,
			"byteOffset":670132,
			"target":34962
		},
		{
			"buffer":0,
			"byteLength":6444,
			"byteOffset":670948,
			"target":34962
		},
		{
			"buffer":0,
			"byteLength":4296,
			"byteOffset":677392,
			"target":34962
		},
		{
			"buffer":0,
			"byteLength":6444,
			"byteOffset":681688,
			"target":34962
		},
		{
			"buffer":0,
			"byteLength":110592,
			"byteOffset":688132,
			"target":34962
		},
		{
			"buffer":0,
			"byteLength":73728,
			"byteOffset":798724,
			"target":34962
		},
		{
			"buffer":0,
			"byteLength":110592,
			"byteOffset":872452,
			"target":34962
		},
		{
			"buffer":0,
			"byteLength":816,
			"byteOffset":983044,
			"target":34962
		},
		{
			"buffer":0,
			"byteLength":544,
			"byteOffset":983860,
			"target":34962
		},
		{
			"buffer":0,
			"byteLength":816,
			"byteOffset":984404,
			"target":34962
		}
	],
	"buffers":[
		{
			"byteLength":985220,
			"uri":"data:application/octet-stream;base64,"
		}
	]
}
