{
	"asset":{
		"generator":"Khronos glTF Blender I/O v3.5.30",
		"version":"2.0"
	},
	"scene":0,
	"scenes":[
		{
			"name":"Scene",
			"nodes":[
				0,
				1,
				2,
				3,
				4,
				5
			]
		}
	],
	"nodes":[
		{
			"mesh":0,
			"name":"Cube",
			"scale":[
				1.5809130668640137,
				1.5809130668640137,
				1.5809130668640137
			],
			"translation":[
				0,
				1.600000023841858,
				0
			]
		},
		{
			"mesh":1,
			"name":"Cube.001",
			"scale":[
				1.5809130668640137,
				1.5809130668640137,
				1.5809130668640137
			],
			"translation":[
				0,
				1.600000023841858,
				0
			]
		},
		{
			"mesh":2,
			"name":"Cube.002",
			"scale":[
				1.5809130668640137,
				1.5809130668640137,
				1.5809130668640137
			],
			"translation":[
				0,
				1.600000023841858,
				0
			]
		},
		{
			"mesh":3,
			"name":"Cube.003",
			"scale":[
				1.5809130668640137,
				1.5809130668640137,
				1.5809130668640137
			],
			"translation":[
				0,
				1.600000023841858,
				0
			]
		},
		{
			"mesh":4,
			"name":"Cube.004",
			"scale":[
				1.5809130668640137,
				1.5809130668640137,
				1.5809130668640137
			],
			"translation":[
				0,
				1.600000023841858,
				0
			]
		},
		{
			"mesh":5,
			"name":"Cube.005",
			"scale":[
				1.5809130668640137,
				1.5809130668640137,
				1.5809130668640137
			],
			"translation":[
				0,
				1.600000023841858,
				0
			]
		}
	],
	"materials":[
		{
			"doubleSided":true,
			"name":"Material.006",
			"pbrMetallicRoughness":{
				"baseColorFactor":[
					0.40237313508987427,
					0.6884095668792725,
					0.8000000715255737,
					1
				],
				"metallicFactor":0,
				"roughnessFactor":0.5
			}
		},
		{
			"doubleSided":true,
			"name":"Material.007",
			"pbrMetallicRoughness":{
				"baseColorFactor":[
					0.4453883171081543,
					0.5253937840461731,
					0.7126283645629883,
					1
				],
				"metallicFactor":0,
				"roughnessFactor":0.5
			}
		},
		{
			"doubleSided":true,
			"name":"Material.008",
			"pbrMetallicRoughness":{
				"baseColorFactor":[
					0.5133579969406128,
					0.7943231463432312,
					0.8549807667732239,
					1
				],
				"metallicFactor":0,
				"roughnessFactor":0.5
			}
		},
		{
			"doubleSided":true,
			"name":"Material.009",
			"pbrMetallicRoughness":{
				"baseColorFactor":[
					0.3420563042163849,
					0.6352620720863342,
					0.8000000715255737,
					1
				],
				"metallicFactor":0,
				"roughnessFactor":0.5
			}
		},
		{
			"doubleSided":true,
			"name":"Material.010",
			"pbrMetallicRoughness":{
				"baseColorFactor":[
					0.41287100315093994,
					0.384559690952301,
					0.7126283645629883,
					1
				],
				"metallicFactor":0,
				"roughnessFactor":0.5
			}
		},
		{
			"doubleSided":true,
			"name":"Material.011",
			"pbrMetallicRoughness":{
				"baseColorFactor":[
					0.5968484282493591,
					0.4828554391860962,
					0.8000000715255737,
					1
				],
				"metallicFactor":0,
				"roughnessFactor":0.5
			}
		}
	],
	"meshes":[
		{
			"name":"Cube",
			"primitives":[
				{
					"attributes":{
						"POSITION":0,
						"TEXCOORD_0":1,
						"NORMAL":2
					},
					"indices":3,
					"material":0
				}
			]
		},
		{
			"name":"Cube.001",
			"primitives":[
				{
					"attributes":{
						"POSITION":4,
						"TEXCOORD_0":5,
						"NORMAL":6
					},
					"indices":7,
					"material":1
				}
			]
		},
		{
			"name":"Cube.002",
			"primitives":[
				{
					"attributes":{
						"POSITION":8,
						"TEXCOORD_0":9,
						"NORMAL":10
					},
					"indices":11,
					"material":2
				}
			]
		},
		{
			"name":"Cube.003",
			"primitives":[
				{
					"attributes":{
						"POSITION":12,
						"TEXCOORD_0":13,
						"NORMAL":14
					},
					"indices":15,
					"material":3
				}
			]
		},
		{
			"name":"Cube.004",
			"primitives":[
				{
					"attributes":{
						"POSITION":16,
						"TEXCOORD_0":17,
						"NORMAL":18
					},
					"indices":19,
					"material":4
				}
			]
		},
		{
			"name":"Cube.005",
			"primitives":[
				{
					"attributes":{
						"POSITION":20,
						"TEXCOORD_0":21,
						"NORMAL":22
					},
					"indices":23,
					"material":5
				}
			]
		}
	],
	"accessors":[
		{
			"bufferView":0,
			"componentType":5126,
			"count":1022,
			"max":[
				0.5600000023841858,
				8.519415855407715,
				0.64000004529953
			],
			"min":[
				-0.5600000023841858,
				-1,
				-0.64000004529953
			],
			"type":"VEC3"
		},
		{
			"bufferView":1,
			"componentType":5126,
			"count":1022,
			"type":"VEC2"
		},
		{
			"bufferView":2,
			"componentType":5126,
			"count":1022,
			"type":"VEC3"
		},
		{
			"bufferView":3,
			"componentType":5123,
			"count":1758,
			"type":"SCALAR"
		},
		{
			"bufferView":4,
			"componentType":5126,
			"count":1900,
			"max":[
				0.5600000023841858,
				8.519415855407715,
				0.64000004529953
			],
			"min":[
				-0.5600000023841858,
				-1,
				-0.64000004529953
			],
			"type":"VEC3"
		},
		{
			"bufferView":5,
			"componentType":5126,
			"count":1900,
			"type":"VEC2"
		},
		{
			"bufferView":6,
			"componentType":5126,
			"count":1900,
			"type":"VEC3"
		},
		{
			"bufferView":7,
			"componentType":5123,
			"count":3792,
			"type":"SCALAR"
		},
		{
			"bufferView":8,
			"componentType":5126,
			"count":1522,
			"max":[
				0.5600000023841858,
				8.519415855407715,
				0.64000004529953
			],
			"min":[
				-0.5600000023841858,
				-1,
				-0.64000004529953
			],
			"type":"VEC3"
		},
		{
			"bufferView":9,
			"componentType":5126,
			"count":1522,
			"type":"VEC2"
		},
		{
			"bufferView":10,
			"componentType":5126,
			"count":1522,
			"type":"VEC3"
		},
		{
			"bufferView":11,
			"componentType":5123,
			"count":2844,
			"type":"SCALAR"
		},
		{
			"bufferView":12,
			"componentType":5126,
			"count":1209,
			"max":[
				0.5600000023841858,
				8.519415855407715,
				0.64000004529953
			],
			"min":[
				-0.5600000023841858,
				-1,
				-0.64000004529953
			],
			"type":"VEC3"
		},
		{
			"bufferView":13,
			"componentType":5126,
			"count":1209,
			"type":"VEC2"
		},
		{
			"bufferView":14,
			"componentType":5126,
			"count":1209,
			"type":"VEC3"
		},
		{
			"bufferView":15,
			"componentType":5123,
			"count":2130,
			"type":"SCALAR"
		},
		{
			"bufferView":16,
			"componentType":5126,
			"count":1453,
			"max":[
				0.5600000023841858,
				8.519415855407715,
				0.64000004529953
			],
			"min":[
				-0.5600000023841858,
				-1,
				-0.64000004529953
			],
			"type":"VEC3"
		},
		{
			"bufferView":17,
			"componentType":5126,
			"count":1453,
			"type":"VEC2"
		},
		{
			"bufferView":18,
			"componentType":5126,
			"count":1453,
			"type":"VEC3"
		},
		{
			"bufferView":19,
			"componentType":5123,
			"count":2628,
			"type":"SCALAR"
		},
		{
			"bufferView":20,
			"componentType":5126,
			"count":1141,
			"max":[
				0.5600000023841858,
				8.519415855407715,
				0.64000004529953
			],
			"min":[
				-0.5600000023841858,
				-1,
				-0.64000004529953
			],
			"type":"VEC3"
		},
		{
			"bufferView":21,
			"componentType":5126,
			"count":1141,
			"type":"VEC2"
		},
		{
			"bufferView":22,
			"componentType":5126,
			"count":1141,
			"type":"VEC3"
		},
		{
			"bufferView":23,
			"componentType":5123,
			"count":2016,
			"type":"SCALAR"
		}
	],
	"bufferViews":[
		{
			"buffer":0,
			"byteLength":12264,
			"byteOffset":0,
			"target":34962
		},
		{
			"buffer":0,
			"byteLength":8176,
			"byteOffset":12264,
			"target":34962
		},
		{
			"buffer":0,
			"byteLength":12264,
			"byteOffset":20440,
			"target":34962
		},
		{
			"buffer":0,
			"byteLength":3516,
			"byteOffset":32704,
			"target":34963
		},
		{
			"buffer":0,
			"byteLength":22800,
			"byteOffset":36220,
			"target":34962
		},
		{
			"buffer":0,
			"byteLength":15200,
			"byteOffset":59020,
			"target":34962
		},
		{
			"buffer":0,
			"byteLength":22800,
			"byteOffset":74220,
			"target":34962
		},
		{
			"buffer":0,
			"byteLength":7584,
			"byteOffset":97020,
			"target":34963
		},
		{
			"buffer":0,
			"byteLength":18264,
			"byteOffset":104604,
			"target":34962
		},
		{
			"buffer":0,
			"byteLength":12176,
			"byteOffset":122868,
			"target":34962
		},
		{
			"buffer":0,
			"byteLength":18264,
			"byteOffset":135044,
			"target":34962
		},
		{
			"buffer":0,
			"byteLength":5688,
			"byteOffset":153308,
			"target":34963
		},
		{
			"buffer":0,
			"byteLength":14508,
			"byteOffset":158996,
			"target":34962
		},
		{
			"buffer":0,
			"byteLength":9672,
			"byteOffset":173504,
			"target":34962
		},
		{
			"buffer":0,
			"byteLength":14508,
			"byteOffset":183176,
			"target":34962
		},
		{
			"buffer":0,
			"byteLength":4260,
			"byteOffset":197684,
			"target":34963
		},
		{
			"buffer":0,
			"byteLength":17436,
			"byteOffset":201944,
			"target":34962
		},
		{
			"buffer":0,
			"byteLength":11624,
			"byteOffset":219380,
			"target":34962
		},
		{
			"buffer":0,
			"byteLength":17436,
			"byteOffset":231004,
			"target":34962
		},
		{
			"buffer":0,
			"byteLength":5256,
			"byteOffset":248440,
			"target":34963
		},
		{
			"buffer":0,
			"byteLength":13692,
			"byteOffset":253696,
			"target":34962
		},
		{
			"buffer":0,
			"byteLength":9128,
			"byteOffset":267388,
			"target":34962
		},
		{
			"buffer":0,
			"byteLength":13692,
			"byteOffset":276516,
			"target":34962
		},
		{
			"buffer":0,
			"byteLength":4032,
			"byteOffset":290208,
			"target":34963
		}
	],
	"buffers":[
		{
			"byteLength":294240,
			"uri":"data:application/octet-stream;base64,"
		}
	]
}
